<?xml version="1.0" encoding="utf-8"?>
<!-- Generator: Adobe Illustrator 16.0.0, SVG Export Plug-In . SVG Version: 6.00 Build 0)  -->
<!DOCTYPE svg PUBLIC "-//W3C//DTD SVG 1.1//EN" "http://www.w3.org/Graphics/SVG/1.1/DTD/svg11.dtd">
<svg version="1.1" xmlns="http://www.w3.org/2000/svg" xmlns:xlink="http://www.w3.org/1999/xlink" x="0px" y="0px"
	 width="519.935px" height="519.935px" viewBox="0 0 519.935 519.935" enable-background="new 0 0 519.935 519.935"
	 xml:space="preserve">
<g id="Layer_4">
</g>
<g id="Layer_5">
</g>
<g id="Layer_2">
	<circle fill="#FFFFFF" cx="259.968" cy="259.967" r="249"/>
	<g>
		<circle fill="#FFFFFF" cx="259.968" cy="259.967" r="240"/>
		
			<circle fill="none" stroke="#000000" stroke-width="0.82" stroke-miterlimit="10" stroke-dasharray="20.107,10.0535" cx="259.968" cy="259.967" r="240"/>
	</g>
	<g>
		<path d="M262.387,41.52h24.61l61.23,174.316c3.123,8.789,6.102,14.406,8.936,16.846c2.051,1.758,5.566,2.637,10.547,2.637h5.713
			v14.648h-67.529v-14.648h7.91c4.395,0,7.273-0.293,8.643-0.879c2.146-0.879,3.223-2.879,3.223-6.006
			c0-2.147-1.076-6.347-3.223-12.598l-11.133-31.934h-78.809l-11.719,33.105c-1.856,3.614-2.783,7.178-2.783,10.693
			c0,5.079,4.102,7.617,12.305,7.617h8.496v14.648h-63.135v-14.648h5.42c5.468,0,9.569-1.366,12.305-4.102
			c2.147-2.147,4.248-6.2,6.299-12.158L262.387,41.52z M271.469,72.721l-32.666,93.311h65.918l-32.667-93.311H271.469z"/>
	</g>
	<g>
		<path d="M99.031,406.967c-12,0-16.6-1.6-19.6-5.6c-4.8-6.8-5.4-16.8,6.6-64.399c11.8-47.599,17.4-57.599,25.6-64.399
			c5-4,10.2-5.6,22.2-5.6h42c11.8,0,16.8,1.801,19.6,5.4c5,6.6,4.2,16-0.2,36.199h-10c3.6-16.8,4.2-24.6,1.2-28.8
			c-1.8-2.2-4.2-3.8-13.8-3.8h-39.599c-9.6,0-12.8,1.4-15.8,3.8c-5,4-9.4,12.2-20.6,57.199s-11,53.199-8,57.199
			c1.8,2.4,4.4,3.8,14,3.8h39.599c9.4,0,12.8-1.6,15.8-4c5-4,8.2-11.399,13.8-30.8h10c-6.2,22.2-10.2,31.6-18.6,38.2
			c-4.8,4-10.8,5.6-22.199,5.6H99.031z"/>
		<path d="M199.229,406.967l2-8.399h18.6l22.2-89.399h-18.6l2.2-8.399h28.2l-24.4,97.799h18.2l-2,8.399H199.229z M251.628,261.569
			h12.4l-4.2,16.6h-12.4L251.628,261.569z"/>
		<path d="M319.026,405.167l-8,1.399c-4.398,0.601-8.799,1.2-14.998,1.2c-6.602,0-11-1.2-13.8-5c-2.801-3.6-2.601-8.199-0.4-16.8
			l19-76.799h-17.4l2.201-8.399h17.398l6.602-26.8h9.6l-6.6,26.8h32.6l-2.201,8.399h-32.6l-18.799,75.6
			c-1.4,5.999-1.4,9.199,0,11.199c1.199,1.601,3.4,2.8,10.199,2.8h18.801L319.026,405.167z"/>
		<path d="M389.628,394.767h0.801l51.598-85.599h-16.398l2.199-8.399h41.199l-2.199,8.399h-14.801l-71.598,117.398
			c-4.801,8.2-9.4,10.8-18.201,10.8c-6.199,0-13.799-0.6-19.6-1.399l2-7.601h19.4c4.6,0,6.6-1.8,8.6-5.199l9.6-15.8l-13.398-98.199
			h-14.801l2.201-8.399h41.799l-2.201,8.399h-16.398L389.628,394.767z"/>
	</g>
</g>
</svg>
